<?xml version="1.0" encoding="UTF-8"?><svg id="a" xmlns="http://www.w3.org/2000/svg" viewBox="0 0 80 80"><defs><style>.b{opacity:.58;}.b,.c,.d,.e{stroke-linecap:round;stroke-linejoin:bevel;}.b,.f,.g,.e{stroke:#020202;stroke-width:.25px;}.c{fill:#f9c543;stroke:#f4e745;}.c,.d,.h{stroke-width:.1px;}.i{fill:#020202;}.j,.h{fill:#fff;}.d{stroke:#fff;}.f{opacity:.86;}.f,.g,.h{stroke-miterlimit:10;}.e{opacity:.52;}.h{stroke:#000;}.k{opacity:.45;}.l{opacity:.66;}.m{opacity:.56;}.n{opacity:.57;}.n,.o{fill:#3f3f3d;}.o{opacity:.77;}</style></defs><g><path class="b" d="M39.14,30.28l-1.94,8.24c-.02,.07-.02,.13,0,.2l2.38,10.37,2.4,10.47,2.38,10.35c.02,.08,.06,.15,.11,.21l8.16,8.39c.23,.24,.64,.14,.74-.18l3.52-11.32c.02-.07,.03-.15,0-.23l-2.32-10.11-2.4-10.47-2.38-10.37c-.01-.07-.04-.13-.09-.18l-5.34-6.57-1.86,2.8-3.38-1.6Z"/><g class="k"><path class="f" d="M38.49,21.85l-2.09,3.2s-11.56,4.04-21.45,1.26c-2.26-.63-4.42-1.62-6.35-3.1-1.56-1.19-3.99-4.31-5.15-6.2,3.71-.86,7.91-2.47,9.45-4.3,.61-.72,1.63-.87,2.42-.35,4.84,3.2,20.83,13.05,23.29,9.22"/></g><g class="m"><path class="g" d="M38.33,21.71l3.3,2.07s12.16-1.4,19.85-8.23c1.75-1.56,3.27-3.39,4.36-5.56,.88-1.75,1.48-3.71,1.7-5.92-3.49,.79-7.46-.51-9.74-1.47-1.11-.47-2.66-.17-3,.99-2.18,7.39-12.69,20.43-16.47,18.12"/></g><polyline class="e" points="40.06 50.91 49.32 48.78 49.73 50.59 40.47 52.71"/><g class="l"><path d="M41.77,32.22c-.18,0-.35-.05-.5-.14l-5.79-3.57c-.06-.04-.08-.11-.04-.17l4.07-6.81s.05-.05,.08-.06c0,0,.02,0,.03,0,.02,0,.05,0,.07,.02l5.82,3.94c.21,.13,.36,.34,.41,.59,.05,.25,0,.5-.13,.71l-3.22,5.05c-.18,.28-.48,.44-.8,.44Z"/><path class="i" d="M39.62,21.59l5.82,3.94c.38,.24,.49,.75,.25,1.13l-3.22,5.05c-.16,.25-.43,.38-.7,.38-.15,0-.3-.04-.43-.12l-5.79-3.57,4.07-6.81m0-.25s-.04,0-.05,0c-.07,.01-.13,.06-.16,.12l-4.07,6.81c-.07,.12-.03,.27,.08,.34l5.79,3.57c.17,.1,.36,.16,.56,.16,.37,0,.71-.19,.91-.5l3.22-5.05c.15-.24,.2-.53,.14-.8-.06-.28-.23-.52-.47-.67l-5.81-3.93s-.09-.04-.14-.04h0Z"/></g></g><path class="h" d="M42.53,20.92l-2.09,3.2s-11.56,4.04-21.45,1.26c-2.26-.63-4.42-1.62-6.35-3.1-1.56-1.19-2.95-2.69-4.11-4.58,3.71-.86,6.87-4.09,8.42-5.92,.61-.72,1.63-.87,2.42-.35,4.84,3.2,20.83,13.05,23.29,9.22"/><path class="h" d="M42.37,20.79l3.3,2.07s12.16-1.4,19.85-8.23c1.75-1.56,3.27-3.39,4.36-5.56,.88-1.75,1.48-3.71,1.7-5.92-3.49,.79-7.46-.51-9.74-1.47-1.11-.47-2.66-.17-3,.99-2.18,7.39-12.69,20.43-16.47,18.12"/><path class="d" d="M41.74,29.75l-1.93,8.21c-.02,.08-.02,.17,0,.26l2.37,10.34,2.4,10.47,2.37,10.31c.02,.1,.07,.19,.15,.27l7.98,8.21c.3,.31,.83,.18,.95-.23l3.45-11.08c.03-.1,.03-.2,.01-.29l-2.31-10.07-2.4-10.47-2.37-10.34c-.02-.08-.06-.16-.11-.23l-5.32-6.54-1.86,2.8-3.38-1.6Z"/><polyline class="c" points="42.59 50.32 51.85 48.2 52.27 50 43.01 52.13"/><g><path class="i" d="M44.69,31.47c-.16,0-.32-.04-.46-.13l-5.79-3.57,4.05-6.87,5.89,3.92c.4,.26,.52,.79,.26,1.2l-3.22,5.05c-.16,.25-.44,.41-.74,.41Z"/><path class="j" d="M42.53,20.92l5.82,3.94c.38,.24,.49,.75,.25,1.13l-3.22,5.05c-.16,.25-.43,.38-.7,.38-.15,0-.3-.04-.43-.12l-5.79-3.57,4.07-6.81m0-.1h-.02s-.05,.03-.06,.05l-4.07,6.81s-.01,.11,.03,.14l5.79,3.57c.15,.09,.31,.14,.48,.14,.32,0,.61-.16,.78-.43l3.22-5.05c.13-.21,.18-.45,.12-.69-.05-.24-.2-.44-.4-.58l-5.82-3.93s-.04-.02-.06-.02h0Z"/></g><path class="o" d="M55.76,77.51l2.17-11.91s0-.05,0-.08l-3.73-21.13,5.02,21.86s0,.08,0,.12l-3.46,11.13Z"/><path class="n" d="M41.22,23.12s-1.09,3.76-1.01,4.12,1.03,1.42,1.6,2.01c.53,.55,1.3,1.34,1.3,1.34l-4.65-2.87,2.76-4.61Z"/></svg>