<?xml version="1.0" encoding="UTF-8"?><svg id="a" xmlns="http://www.w3.org/2000/svg" xmlns:xlink="http://www.w3.org/1999/xlink" viewBox="0 0 1366 768"><defs><style>.h,.i,.j,.k,.l{fill:none;}.i,.j,.m,.n,.o,.k,.l,.p,.q,.r,.s,.t,.u{stroke-linejoin:round;}.i,.o,.k,.q,.s,.t,.u{stroke:#000;}.j,.n,.v,.p,.r{stroke:#333;}.w{opacity:.08;}.x{opacity:.12;}.y{fill:#f2f3f4;}.a`{fill:#020202;}.aa,.m{fill:#fff;}.ab,.n,.v,.p,.r{fill:#333;}.ac{fill:#868685;}.m,.n,.k,.l{stroke-width:2px;}.m,.n,.k,.l,.p{stroke-linecap:round;}.m,.l{stroke:#fff;}.o{opacity:.57;}.o,.u{fill:#511018;}.ad{fill:#e7ae17;stroke:#fc0;}.ad,.v{stroke-miterlimit:10;}.ae{opacity:.69;}.af{clip-path:url(#c);}.ag{clip-path:url(#b);}.ah{clip-path:url(#f);}.ai{clip-path:url(#e);}.aj{clip-path:url(#d);}.ak{clip-path:url(#g);}.p{stroke-width:3px;}.al{isolation:isolate;}.q{fill:#8a8a8a;}.s{fill:#858585;}.t{fill:#353534;}</style><clipPath id="b"><path class="r" d="M529.98,371.15l-7.41,12.9c1.37-3.59,1.49-8.11,.37-13.59-.99-4.87-3.12-8.93-6.36-12.21-3.25-3.28-8-5.6-14.27-6.96-4.37-.91-9.13-1.3-14.25-1.17s-11.44,.56-18.96,1.27l7.41-12.9c7.52-.71,13.83-1.14,18.96-1.27s9.87,.26,14.25,1.17c6.27,1.36,11.01,3.68,14.27,6.96,3.24,3.28,5.36,7.35,6.36,12.21,1.12,5.48,1,10.01-.37,13.59Z"/></clipPath><clipPath id="c"><path class="r" d="M525.38,371.07l-4.87,11.26c.32-.74,.59-1.5,.81-2.27l4.87-11.26c-.22,.78-.49,1.54-.81,2.27Z"/></clipPath><clipPath id="d"><path class="r" d="M567.38,375.86l-4.87,11.26c-.42,.96-.87,1.9-1.36,2.82-4.7,8.82-11.66,16.25-20.88,22.28l4.87-11.26c9.22-6.03,16.18-13.46,20.88-22.28,.49-.92,.94-1.86,1.36-2.82Z"/></clipPath><clipPath id="e"><path class="i" d="M554.14,355.15l-7.41,12.9c1.37-3.59,1.49-8.11,.37-13.59-.99-4.87-3.12-8.93-6.36-12.21-3.25-3.28-8-5.6-14.27-6.96-4.37-.91-9.13-1.3-14.25-1.17s-11.44,.56-18.96,1.27l7.41-12.9c7.52-.71,13.83-1.14,18.96-1.27s9.87,.26,14.25,1.17c6.27,1.36,11.01,3.68,14.27,6.96,3.24,3.28,5.36,7.35,6.36,12.21,1.12,5.48,1,10.01-.37,13.59Z"/></clipPath><clipPath id="f"><path class="i" d="M549.54,355.07l-4.87,11.26c.32-.74,.59-1.5,.81-2.27l4.87-11.26c-.22,.78-.49,1.54-.81,2.27Z"/></clipPath><clipPath id="g"><path class="i" d="M591.54,359.86l-4.87,11.26c-.42,.96-.87,1.9-1.36,2.82-4.7,8.82-11.66,16.25-20.88,22.28l4.87-11.26c9.22-6.03,16.18-13.46,20.88-22.28,.49-.92,.94-1.86,1.36-2.82Z"/></clipPath></defs><rect class="y" x=".26" y="-.04" width="1366" height="768"/><path class="o" d="M.76,35.97c12.86-2.77,124.02-82.64,294.85,91.95,200.15,204.55,319.15,376.55,472.54,284.33,271.13-163,562.99,129.26,598.61,178.22v178L-.24,767.46,.76,35.97Z"/><g class="ae"><g><polygon class="r" points="390.23 354.15 385.36 365.4 334.41 371.82 339.28 360.56 390.23 354.15"/><polygon class="r" points="295.97 366.01 291.1 377.27 240.15 383.68 245.02 372.42 295.97 366.01"/><polygon class="r" points="245.02 372.42 240.15 383.68 235.17 351.39 240.04 340.13 245.02 372.42"/><polygon class="r" points="360.38 497.6 355.51 508.86 312.2 514.31 317.07 503.05 360.38 497.6"/><polyline class="r" points="317.07 503.05 312.2 514.31 291.1 377.27 295.97 366.01"/><polygon class="r" points="385.26 321.85 390.23 354.15 339.28 360.56 360.38 497.6 317.07 503.05 295.97 366.01 245.02 372.42 240.04 340.13 385.26 321.85"/></g><g class="al"><path class="ab" d="M529.98,371.15l-7.41,12.9c1.37-3.59,1.49-8.11,.37-13.59-.99-4.87-3.12-8.93-6.36-12.21-3.25-3.28-8-5.6-14.27-6.96-4.37-.91-9.13-1.3-14.25-1.17s-11.44,.56-18.96,1.27l7.41-12.9c7.52-.71,13.83-1.14,18.96-1.27s9.87,.26,14.25,1.17c6.27,1.36,11.01,3.68,14.27,6.96,3.24,3.28,5.36,7.35,6.36,12.21,1.12,5.48,1,10.01-.37,13.59Z"/><g class="ag"><path class="r" d="M530.34,357.56c-.99-4.87-3.12-8.93-6.36-12.21-3.25-3.28-3.19-11.72-9.45-13.07-4.37-.91-11.98-1.22-17.1-1.09-5.12,.13-14.93,2.57-22.45,3.28h-14.97l-12.93,19.02,22.02-2.09c7.52-.71,13.83-1.14,18.96-1.27,5.12-.13,9.87,.26,14.25,1.17,6.27,1.36,11.01,3.68,14.27,6.96,3.24,3.28,5.36,7.35,6.36,12.21,1.12,5.48,1,10.01-.37,13.59l7.41-12.9c1.37-3.59,1.49-8.11,.37-13.59Z"/></g><path class="j" d="M529.98,371.15l-7.41,12.9c1.37-3.59,1.49-8.11,.37-13.59-.99-4.87-3.12-8.93-6.36-12.21-3.25-3.28-8-5.6-14.27-6.96-4.37-.91-9.13-1.3-14.25-1.17s-11.44,.56-18.96,1.27l7.41-12.9c7.52-.71,13.83-1.14,18.96-1.27s9.87,.26,14.25,1.17c6.27,1.36,11.01,3.68,14.27,6.96,3.24,3.28,5.36,7.35,6.36,12.21,1.12,5.48,1,10.01-.37,13.59Z"/></g><g class="al"><path class="ab" d="M525.38,371.07l-4.87,11.26c.32-.74,.59-1.5,.81-2.27l4.87-11.26c-.22,.78-.49,1.54-.81,2.27Z"/><g class="af"><g class="al"><path class="r" d="M525.38,371.07l-4.87,11.26c.32-.74,.59-1.5,.81-2.27l4.87-11.26c-.22,.78-.49,1.54-.81,2.27"/></g></g><path class="j" d="M525.38,371.07l-4.87,11.26c.32-.74,.59-1.5,.81-2.27l4.87-11.26c-.22,.78-.49,1.54-.81,2.27Z"/></g><g class="al"><path class="ab" d="M567.38,375.86l-4.87,11.26c-.42,.96-.87,1.9-1.36,2.82-4.7,8.82-11.66,16.25-20.88,22.28l4.87-11.26c9.22-6.03,16.18-13.46,20.88-22.28,.49-.92,.94-1.86,1.36-2.82Z"/><g class="aj"><g class="al"><path class="r" d="M567.38,375.86l-4.87,11.26c-.42,.96-.87,1.9-1.36,2.82-.33,.62-.68,1.24-1.03,1.85l4.87-11.26c.35-.61,.7-1.22,1.03-1.85,.49-.92,.94-1.86,1.36-2.82"/><path class="r" d="M564.99,380.53l-4.87,11.26c-4.66,8.01-11.28,14.83-19.85,20.43l4.87-11.26c8.57-5.6,15.19-12.41,19.85-20.43"/></g></g><path class="j" d="M567.38,375.86l-4.87,11.26c-.42,.96-.87,1.9-1.36,2.82-4.7,8.82-11.66,16.25-20.88,22.28l4.87-11.26c9.22-6.03,16.18-13.46,20.88-22.28,.49-.92,.94-1.86,1.36-2.82Z"/></g><polygon class="r" points="503.81 416.25 498.94 427.51 483.43 429.46 488.3 418.2 503.81 416.25"/><polygon class="r" points="614.23 465.65 609.36 476.91 556.56 483.55 561.43 472.29 614.23 465.65"/><polygon class="r" points="561.43 472.29 556.56 483.55 498.94 427.51 503.81 416.25 561.43 472.29"/><polygon class="r" points="454.78 485.72 449.91 496.98 423.83 327.64 428.7 316.38 454.78 485.72"/><polygon class="r" points="497.86 480.3 492.99 491.55 449.91 496.98 454.78 485.72 497.86 480.3"/><path class="r" d="M545.14,400.96l69.1,64.69-52.8,6.65-57.62-56.04-15.52,1.95,9.56,62.09-43.08,5.42-26.08-169.34,69.36-8.73c9.57-1.2,18-1.66,25.28-1.38,7.28,.28,14.22,1.9,20.82,4.85,6.77,3.09,12.42,7.38,16.97,12.87,4.55,5.5,7.53,12.83,8.94,22.01,2,12.96,.64,23.86-4.06,32.68-4.7,8.82-11.66,16.25-20.88,22.28Zm-18.95-32.16c.9-3.13,.98-7.07,.24-11.86-.65-4.24-2.05-7.79-4.18-10.65-2.14-2.86-5.26-4.89-9.38-6.07-2.88-.79-6-1.13-9.37-1.02s-7.52,.49-12.46,1.11l-14.47,1.82,7.02,45.6,12.39-1.56c6.02-.76,11.08-1.76,15.17-3.01,4.1-1.25,7.43-3.24,10.01-5.96,2.45-2.47,4.13-5.27,5.02-8.4"/><polygon class="r" points="716.98 310.24 712.11 321.5 687.33 324.62 692.2 313.36 716.98 310.24"/><polygon class="r" points="648.9 318.81 644.02 330.07 619.24 333.19 624.12 321.93 648.9 318.81"/><polygon class="r" points="624.12 321.93 619.24 333.19 614.69 303.62 619.56 292.36 624.12 321.93"/><polygon class="r" points="665.87 429 660.99 440.26 644.02 330.07 648.9 318.81 665.87 429"/><polygon class="r" points="712.43 280.67 716.98 310.24 692.2 313.36 709.17 423.55 733.95 420.43 738.51 450.01 645.64 461.69 641.09 432.12 665.87 429 648.9 318.81 624.12 321.93 619.56 292.36 712.43 280.67"/><polygon class="r" points="738.51 450.01 733.64 461.26 640.77 472.95 645.64 461.69 738.51 450.01"/><polygon class="r" points="645.64 461.69 640.77 472.95 636.21 443.38 641.09 432.12 645.64 461.69"/><polygon class="r" points="847.19 380.68 842.32 391.94 862.17 272.46 867.05 261.21 847.19 380.68"/><polygon class="r" points="910.82 255.7 877.61 432.5 832.44 438.18 747.08 276.31 792.01 270.65 847.19 380.68 867.05 261.21 910.82 255.7"/><polygon class="r" points="877.61 432.5 872.74 443.75 827.57 449.44 832.44 438.18 877.61 432.5"/><polygon class="r" points="832.44 438.18 827.57 449.44 742.2 287.57 747.08 276.31 832.44 438.18"/><polygon class="r" points="1042.88 269.22 1038.01 280.48 1013.23 283.6 1018.1 272.34 1042.88 269.22"/><polygon class="r" points="974.8 277.79 969.92 289.05 945.14 292.17 950.02 280.91 974.8 277.79"/><polygon class="r" points="950.02 280.91 945.14 292.17 940.59 262.59 945.46 251.34 950.02 280.91"/><polygon class="r" points="991.77 387.98 986.89 399.24 969.92 289.05 974.8 277.79 991.77 387.98"/><polygon class="r" points="1038.33 239.65 1042.88 269.22 1018.1 272.34 1035.07 382.53 1059.85 379.41 1064.41 408.98 971.54 420.67 966.98 391.1 991.77 387.98 974.8 277.79 950.02 280.91 945.46 251.34 1038.33 239.65"/><polygon class="r" points="1064.41 408.98 1059.54 420.24 966.67 431.93 971.54 420.67 1064.41 408.98"/><polygon class="r" points="971.54 420.67 966.67 431.93 962.11 402.36 966.98 391.1 971.54 420.67"/><line class="r" x1="377.6" y1="322.69" x2="250.6" y2="338.69"/><g class="x"><path class="ab" d="M548.9,318.55c3.6,3.61,7.12,7.42,9.46,11.95,1.2,2.33,2.06,4.82,2.92,7.3,.91,2.63,1.83,5.27,2.44,7.99,1.41,6.26,1.19,12.82-.12,19.1-.55,2.65-1.35,5.38-3.21,7.35"/><path class="ab" d="M547.84,319.61c6.71,6.79,10.49,13.47,13.32,22.56,2.59,8.3,3.96,21.62-1.82,29.01-1.18,1.5,.93,3.64,2.12,2.12,5.83-7.46,5.66-19.93,3.51-28.72-2.62-10.71-7.27-19.26-15-27.09-1.36-1.38-3.48,.75-2.12,2.12h0Z"/></g><g class="x"><path class="ab" d="M473.04,344.96l-.87-3.79c-.11-.48-.2-1.04,.13-1.4,.27-.29,.71-.34,1.1-.36l4.83-.26"/><path class="ab" d="M474.49,344.56l-.53-2.31c-.08-.35-.16-.7-.24-1.05-.04-.17-.08-.35-.12-.52-.03-.26-.16-.17-.39,.26,0,.05,4.63-.26,5.04-.28,1.92-.1,1.93-3.1,0-3l-4.11,.22c-1.1,.06-2.24,.07-3.01,.99-.66,.78-.59,1.77-.4,2.71,.25,1.27,.58,2.53,.87,3.79,.43,1.88,3.32,1.08,2.89-.8h0Z"/></g><g class="x"><path class="ab" d="M467.95,343.1c-.4-1.41-.7-2.85-.91-4.31-.06-.38-.1-.8,.07-1.15,.65-1.34,3.05-.06,4.1-1.12"/><path class="ab" d="M469.39,342.7c-.26-.95-.49-1.9-.67-2.86-.06-.31-.31-1.13-.23-1.44-.05,.21-.41,.02,.21,.08,1.31,.12,2.52-.04,3.56-.89,1.5-1.22-.64-3.33-2.12-2.12-.31,.26-1.58,0-2.01,.04-.87,.09-1.68,.41-2.18,1.16-.63,.92-.45,1.97-.29,3.01,.2,1.29,.49,2.56,.84,3.82,.51,1.86,3.4,1.07,2.89-.8h0Z"/></g><g class="x"><path class="ab" d="M462.86,337.95c-.75-.97-1.25-2.14-1.42-3.36,1.03-.41,2.18-.53,3.28-.34"/><path class="ab" d="M464.15,337.19c-.69-.92-1.09-1.87-1.27-3l-1.05,1.85c.8-.3,1.63-.47,2.48-.34,.8,.13,1.61-.2,1.85-1.05,.2-.71-.24-1.72-1.05-1.85-1.39-.22-2.75-.16-4.07,.34-.82,.31-1.19,.98-1.05,1.85,.22,1.34,.76,2.63,1.57,3.72,.48,.65,1.3,.98,2.05,.54,.64-.37,1.03-1.4,.54-2.05h0Z"/></g><g class="x"><path class="ab" d="M489.95,412.39l9.41-1.42c1.35-.2,2.77-.4,4.05,.09,1.51,.58,2.5,1.99,3.54,3.22,1.39,1.65,3.02,3.09,4.83,4.28"/><path class="ab" d="M490.35,413.84c4.17-.63,10.94-3,14.35,.1,2.18,1.98,3.86,4.19,6.32,5.91,1.59,1.11,3.09-1.49,1.51-2.59-3.17-2.22-5.54-6.84-9.38-7.8-4.05-1-9.56,.87-13.6,1.48-1.9,.29-1.09,3.18,.8,2.89h0Z"/></g><g class="x"><path class="ab" d="M495.93,406.94c1.88,.52,3.87,.63,5.79,.3,.62-.1,1.25-.25,1.87-.15,.61,.1,1.15,.44,1.67,.77l4.55,2.88"/><path class="ab" d="M495.53,408.39c2.19,.53,4,.32,6.19,.36,2.89,.05,4.96,1.8,7.32,3.3,1.64,1.04,3.14-1.56,1.51-2.59-1.96-1.25-4.24-3.33-6.57-3.8-1.1-.22-2.14,.12-3.23,.22-1.51,.14-2.96-.03-4.42-.38-1.88-.45-2.68,2.44-.8,2.89h0Z"/></g><g class="x"><path class="ab" d="M580.82,464c6.36-1.7,12.93-2.6,19.51-2.68"/><path class="ab" d="M581.21,465.45c6.28-1.62,12.63-2.49,19.11-2.62,1.93-.04,1.93-3.04,0-3-6.75,.14-13.37,1.04-19.91,2.73-1.87,.48-1.08,3.38,.8,2.89h0Z"/></g><g class="x"><path class="ab" d="M458.75,479.17c-.35-9.24-1.47-18.46-3.32-27.52"/><path class="ab" d="M460.25,479.17c-.41-9.4-1.54-18.69-3.37-27.92-.38-1.89-3.27-1.09-2.89,.8,1.78,8.96,2.87,17.99,3.27,27.12,.08,1.92,3.08,1.93,3,0h0Z"/></g><g class="x"><path class="ab" d="M464.43,477.79c-.63-5.28-1.15-10.58-1.58-15.88"/><path class="ab" d="M465.93,477.79c-.62-5.28-1.15-10.58-1.58-15.88-.16-1.91-3.16-1.93-3,0,.43,5.3,.96,10.59,1.58,15.88,.22,1.89,3.22,1.92,3,0h0Z"/></g><g class="x"><path class="ab" d="M469.87,478.22c-.84-2.87-1.34-5.85-1.48-8.84"/><path class="ab" d="M471.32,477.82c-.79-2.77-1.27-5.57-1.42-8.44-.1-1.92-3.11-1.93-3,0,.17,3.14,.67,6.22,1.53,9.24,.53,1.85,3.42,1.07,2.89-.8h0Z"/></g><g class="x"><path class="ab" d="M436.73,333.3c-1.1-2.83-1.21-6.04-.31-8.94,.28-.91,.68-1.81,1.38-2.45,.73-.68,1.72-1,2.69-1.25,2.28-.59,4.64-.89,6.99-.9"/><path class="ab" d="M438.18,332.9c-.94-2.68-1.48-6.49,.07-9.11s6.65-2.48,9.23-2.54c1.93-.04,1.93-3.04,0-3-3.54,.08-9.17,.17-11.45,3.42s-2.03,8.36-.75,12.02c.63,1.81,3.53,1.03,2.89-.8h0Z"/></g><g class="x"><path class="ab" d="M625.47,296.95c1.29,6.31,2.18,12.69,2.68,19.11"/><path class="ab" d="M624.03,297.35c1.23,6.19,2.11,12.42,2.63,18.71,.16,1.91,3.16,1.93,3,0-.54-6.56-1.45-13.06-2.74-19.51-.38-1.89-3.27-1.09-2.89,.8h0Z"/></g><g class="x"><path class="ab" d="M634.82,314.7l6.05-.56"/><path class="ab" d="M634.82,316.2l6.05-.56c1.91-.18,1.92-3.18,0-3l-6.05,.56c-1.91,.18-1.92,3.18,0,3h0Z"/></g><g class="x"><path class="ab" d="M637.14,311.03c1.93,0,1.93-3,0-3s-1.93,3,0,3h0Z"/></g><g class="x"><path class="ab" d="M709.24,283.9c.38,6.56,1.25,13.1,2.61,19.53"/><path class="ab" d="M707.74,283.9c.43,6.71,1.31,13.35,2.67,19.93,.39,1.89,3.28,1.09,2.89-.8-1.3-6.33-2.15-12.69-2.56-19.14-.12-1.92-3.12-1.93-3,0h0Z"/></g><g class="x"><path class="ab" d="M698.67,285.85l5.59-.53"/><path class="ab" d="M698.67,287.35l5.59-.53c1.91-.18,1.92-3.18,0-3l-5.59,.53c-1.91,.18-1.92,3.18,0,3h0Z"/></g><g class="x"><path class="ab" d="M702.85,291.45c1.93,0,1.93-3,0-3s-1.93,3,0,3h0Z"/></g><g class="x"><path class="ab" d="M657.65,325.94c1.93,0,1.93-3,0-3s-1.93,3,0,3h0Z"/></g><g class="x"><path class="ab" d="M701.92,420.07c1.93,0,1.93-3,0-3s-1.93,3,0,3h0Z"/></g><g class="x"><path class="ab" d="M688.41,318.02c1.93,0,1.93-3,0-3s-1.93,3,0,3h0Z"/></g><g class="x"><path class="ab" d="M673.96,425.2c1.93,0,1.93-3,0-3s-1.93,3,0,3h0Z"/></g><g class="x"><path class="ab" d="M647.79,434.89c.49,6.89,1.42,13.75,2.77,20.52"/><path class="ab" d="M646.29,434.89c.54,7.03,1.48,14,2.82,20.92,.37,1.89,3.26,1.09,2.89-.8-1.29-6.66-2.2-13.36-2.72-20.12-.15-1.91-3.15-1.93-3,0h0Z"/></g><g class="x"><path class="ab" d="M653.44,434.77l6.55-.62"/><path class="ab" d="M653.44,436.27l6.55-.62c1.91-.18,1.92-3.18,0-3l-6.55,.62c-1.91,.18-1.92,3.18,0,3h0Z"/></g><g class="x"><path class="ab" d="M657.18,440.58c1.93,0,1.93-3,0-3s-1.93,3,0,3h0Z"/></g><g class="x"><path class="ab" d="M730.13,427.5c1.86,5.42,3.14,11.03,3.83,16.72"/><path class="ab" d="M728.69,427.9c1.78,5.32,3.06,10.75,3.77,16.32,.24,1.89,3.24,1.91,3,0-.75-5.84-2.01-11.53-3.88-17.12-.61-1.82-3.51-1.04-2.89,.8h0Z"/></g><g class="x"><path class="ab" d="M723.35,446.51l6.05-.96"/><path class="ab" d="M723.75,447.96l6.05-.96c1.9-.3,1.09-3.19-.8-2.89l-6.05,.96c-1.9,.3-1.09,3.19,.8,2.89h0Z"/></g><g class="x"><path class="ab" d="M725.22,440.11c1.93,0,1.93-3,0-3s-1.93,3,0,3h0Z"/></g><g class="x"><path class="ab" d="M651.48,302.91c2.48-3.09,5.66-5.61,9.23-7.33,.25-.12,.54-.24,.81-.17,.46,.13,.59,.71,.61,1.19,.18,3-.24,6.04-1.23,8.89,2.56,1.03,5.35-.79,7.3-2.73s3.94-4.28,6.68-4.57c1.07-.11,2.43,.42,2.41,1.49,0,.4-.21,.76-.41,1.1l-2.26,3.88c-.22,.39-.45,.8-.44,1.24,.02,.86,.98,1.46,1.84,1.4s1.62-.57,2.31-1.09c3.49-2.59,6.63-5.64,9.32-9.05"/><path class="ab" d="M652.54,303.97c1.55-1.82,3.98-4.9,6.33-5.66,1.34-.43,.87-1,1.8,.1,.69,.82-.86,5.53-1.21,6.68-.23,.75,.27,1.67,1.05,1.85,3.56,.8,6.15-.74,8.76-3.12,.94-.85,1.76-2.19,2.93-2.72,.54-.88,1.13-.97,1.79-.26,1.17,.28,1.21,.87,.11,1.77-.31,1.28-1.6,2.23-1.35,3.69,1.46,8.48,14.71-6.51,15.98-8.07s-.9-3.62-2.12-2.12c-1.37,1.68-2.8,3.32-4.36,4.83-.82,.8-5.1,5.31-5.56,3.18-.21-.96,1.97-2.81,2.07-4.05,.06-.77-.13-1.56-.65-2.2-1.22-1.48-3.5-1.32-5.1-.76-4.12,1.43-6.79,8.02-11.7,6.92l1.05,1.85c.66-2.18,3.41-10.78-.43-11.92-3.59-1.06-9.59,5.64-11.5,7.88-1.24,1.46,.87,3.59,2.12,2.12h0Z"/></g><g class="x"><path class="ab" d="M675.6,439.21l4.58-2.88c.84-.53,1.71-1.06,2.69-1.17s2.1,.38,2.39,1.33c.38,1.26-.79,2.39-1.8,3.24s-2.04,2.2-1.38,3.34c.68,1.18,2.47,.87,3.67,.24,5.46-2.86,9.22-9.31,15.37-9.81,.68-.06,1.45,0,1.9,.51,.88,.99-.17,2.48-1.15,3.36l-8.54,7.62c5.07,1.4,10.69,.63,15.2-2.06"/><path class="ab" d="M676.36,440.51c.83-.52,2.77-2.2,3.81-2.4,.77-.81,1.52-.62,2.23,.57l-.95,.99c-.45,1.39-1.32,1.83-.87,3.41,.66,2.34,3.03,2.56,5.08,1.89,3.66-1.2,6.52-4.79,9.47-7.08,1.4-1.08,6.69-4.51,4.97-.93-1.09,2.26-5.98,5.34-7.83,6.99-.83,.74-.41,2.26,.66,2.51,5.75,1.33,11.17,.6,16.36-2.21,1.7-.92,.19-3.51-1.51-2.59-4.49,2.43-9.07,3.06-14.05,1.91l.66,2.51c2.93-2.61,7.75-5.54,9.71-8.97,.73-1.28,1.13-2.9-.01-4.13-2.98-3.23-9.15,1.2-11.45,3.08-1.22,1-2.37,2.09-3.58,3.11-.82,.69-5.34,5.18-4.53,1.65,.41-1.81,2.95-2.09,2.18-4.7-1.7-5.77-9.57,.38-11.86,1.82-1.63,1.03-.13,3.62,1.51,2.59h0Z"/></g><g class="x"><path class="ab" d="M659.69,334.65c6.42,26.13,10.34,52.87,11.67,79.75"/><path class="ab" d="M658.24,335.05c6.34,26.05,10.23,52.58,11.62,79.35,.1,1.92,3.1,1.93,3,0-1.4-27.03-5.32-53.84-11.72-80.14-.46-1.87-3.35-1.08-2.89,.8h0Z"/></g><g class="x"><path class="ab" d="M689.18,326.72c4.23,26.36,7.91,52.8,11.03,79.31"/><path class="ab" d="M687.74,327.12c4.2,26.23,7.86,52.53,10.98,78.91,.22,1.89,3.23,1.92,3,0-3.15-26.64-6.85-53.22-11.08-79.71-.3-1.9-3.2-1.09-2.89,.8h0Z"/></g><g class="x"><path class="ab" d="M557.94,363.01c.2-3.7,.29-7.4,.27-11.1,0-1.75-.05-3.5-.37-5.21-.52-2.75-1.76-5.29-2.99-7.8-1.29-2.63-2.61-5.3-4.62-7.43"/><path class="ab" d="M559.44,363.01c.31-6.18,1.15-13.14-.81-19.13-1.56-4.77-4.07-9.68-7.34-13.48-1.26-1.47-3.38,.66-2.12,2.12,3.13,3.63,6.01,9.11,7.03,13.76,1.17,5.32,.51,11.33,.24,16.73-.1,1.93,2.9,1.92,3,0h0Z"/></g><g class="x"><path class="ab" d="M552.03,356.72c.35-5.06-1.06-10.22-3.94-14.39"/><path class="ab" d="M553.53,356.72c.26-5.42-1.16-10.61-4.14-15.15-1.06-1.61-3.65-.11-2.59,1.51,2.72,4.14,3.97,8.69,3.73,13.64-.09,1.93,2.91,1.93,3,0h0Z"/></g><g class="x"><path class="ab" d="M594.15,457.82c1.93,0,1.93-3,0-3s-1.93,3,0,3h0Z"/></g><g class="x"><path class="ab" d="M590.31,452.58c1.93,0,1.93-3,0-3s-1.93,3,0,3h0Z"/></g><g class="x"><path class="ab" d="M586.12,448.04c1.93,0,1.93-3,0-3s-1.93,3,0,3h0Z"/></g><g class="x"><path class="ab" d="M841.39,384.98c.87,2.33,2.67,4.31,4.9,5.4,.59,.29,1.24,.52,1.89,.4,.78-.15,1.37-.79,1.86-1.42,1.4-1.82,2.47-3.89,3.13-6.08"/><path class="ab" d="M839.94,385.37c1.25,3.01,4.24,6.99,7.91,6.91s5.82-5.71,6.76-8.61c.6-1.84-2.3-2.63-2.89-.8s-1.87,5.64-3.9,6.05c-2.18,.44-4.25-2.57-4.99-4.35s-3.63-.99-2.89,.8h0Z"/></g><g class="x"><path class="ab" d="M843.99,394.5c.91,1.52,2.77,2.4,4.52,2.17s3.3-1.59,3.78-3.3"/><path class="ab" d="M842.7,395.25c2.98,4.37,9.35,3.55,11.04-1.49,.62-1.83-2.28-2.62-2.89-.8-.84,2.51-4.05,2.98-5.56,.77-1.08-1.58-3.68-.09-2.59,1.51h0Z"/></g><g class="x"><path class="ab" d="M846.87,402.47c1.1,.88,2.88,.72,3.81-.34"/><path class="ab" d="M846.12,403.76c1.7,1.24,4.19,.92,5.62-.57,1.34-1.39-.78-3.52-2.12-2.12-.58,.61-1.34,.57-1.99,.1s-1.67-.11-2.05,.54c-.44,.76-.12,1.57,.54,2.05h0Z"/></g><g class="x"><path class="ab" d="M873.76,429.16c1.93,0,1.93-3,0-3s-1.93,3,0,3h0Z"/></g><g class="x"><path class="ab" d="M866.84,426.28c.46-2.05,2.38-3.69,4.48-3.82"/><path class="ab" d="M868.29,426.68c.36-1.41,1.54-2.59,3.03-2.72,.81-.07,1.5-.64,1.5-1.5,0-.75-.69-1.58-1.5-1.5-2.81,.26-5.22,2.15-5.93,4.93-.48,1.87,2.41,2.67,2.89,.8h0Z"/></g><g class="x"><path class="ab" d="M837.42,433.36c1.93,0,1.93-3,0-3s-1.93,3,0,3h0Z"/></g><g class="x"><path class="ab" d="M841.76,430.31c.75-1.13-.18-2.75-1.46-3.21s-2.68-.12-3.99,.22l-3.08,.8"/><path class="ab" d="M843.06,431.07c.98-1.96,.14-4.18-1.81-5.18-2.56-1.31-5.87,.12-8.41,.79-1.87,.49-1.08,3.38,.8,2.89,1.31-.34,2.61-.74,3.94-1.01,.38-.08,3.61-.43,2.9,1-.86,1.72,1.73,3.24,2.59,1.51h0Z"/></g><g class="x"><path class="ab" d="M869.92,269.55c1.93,0,1.93-3,0-3s-1.93,3,0,3h0Z"/></g><g class="x"><path class="ab" d="M870.62,267.22c1.93,0,1.93-3,0-3s-1.93,3,0,3h0Z"/></g><g class="x"><path class="ab" d="M872.25,265.36c1.93,0,1.93-3,0-3s-1.93,3,0,3h0Z"/></g><g class="x"><path class="ab" d="M872.95,267.22c1.93,0,1.93-3,0-3s-1.93,3,0,3h0Z"/></g><g class="x"><path class="ab" d="M871.78,269.08c1.93,0,1.93-3,0-3s-1.93,3,0,3h0Z"/></g><g class="x"><path class="ab" d="M873.65,269.08c1.93,0,1.93-3,0-3s-1.93,3,0,3h0Z"/></g><g class="x"><path class="ab" d="M903.24,261.16c1.93,0,1.93-3,0-3s-1.93,3,0,3h0Z"/></g><g class="x"><path class="ab" d="M905.57,260.93c1.93,0,1.93-3,0-3s-1.93,3,0,3h0Z"/></g><g class="x"><path class="ab" d="M907.2,260.7c1.93,0,1.93-3,0-3s-1.93,3,0,3h0Z"/></g><g class="x"><path class="ab" d="M904.64,262.79c1.93,0,1.93-3,0-3s-1.93,3,0,3h0Z"/></g><g class="x"><path class="ab" d="M906.27,262.09c1.93,0,1.93-3,0-3s-1.93,3,0,3h0Z"/></g><g class="x"><path class="ab" d="M906.04,264.42c1.93,0,1.93-3,0-3s-1.93,3,0,3h0Z"/></g><g class="x"><path class="ab" d="M880.38,265.69c1.27-1.3,3.28-1.44,5.09-1.39,2.11,.07,4.22,.3,6.33,.18s4.26-.63,5.95-1.9"/><path class="ab" d="M881.44,266.76c2.57-2.07,7.33-.57,10.36-.77,2.44-.16,4.65-.77,6.71-2.11,1.61-1.05,.11-3.65-1.51-2.59-5.48,3.57-12.59-.75-17.67,3.34-1.5,1.21,.63,3.32,2.12,2.12h0Z"/></g><g class="x"><path class="ab" d="M784.87,276.54c1.93,0,1.93-3,0-3s-1.93,3,0,3h0Z"/></g><g class="x"><path class="ab" d="M786.97,276.31c1.93,0,1.93-3,0-3s-1.93,3,0,3h0Z"/></g><g class="x"><path class="ab" d="M789.3,275.84c1.93,0,1.93-3,0-3s-1.93,3,0,3h0Z"/></g><g class="x"><path class="ab" d="M789.53,277.47c1.93,0,1.93-3,0-3s-1.93,3,0,3h0Z"/></g><g class="x"><path class="ab" d="M786.74,277.94c1.93,0,1.93-3,0-3s-1.93,3,0,3h0Z"/></g><g class="x"><path class="ab" d="M788.83,279.1c1.93,0,1.93-3,0-3s-1.93,3,0,3h0Z"/></g><g class="x"><path class="ab" d="M753.65,280.97c1.93,0,1.93-3,0-3s-1.93,3,0,3h0Z"/></g><g class="x"><path class="ab" d="M755.75,280.5c1.93,0,1.93-3,0-3s-1.93,3,0,3h0Z"/></g><g class="x"><path class="ab" d="M758.31,280.04c1.93,0,1.93-3,0-3s-1.93,3,0,3h0Z"/></g><g class="x"><path class="ab" d="M757.61,282.13c1.93,0,1.93-3,0-3s-1.93,3,0,3h0Z"/></g><g class="x"><path class="ab" d="M755.98,282.37c1.93,0,1.93-3,0-3s-1.93,3,0,3h0Z"/></g><g class="x"><path class="ab" d="M757.84,284.23c1.93,0,1.93-3,0-3s-1.93,3,0,3h0Z"/></g><g class="x"><path class="ab" d="M765.03,279.47c1.64-1.83,4.49-1.77,6.92-1.4s5.1,.89,7.2-.38"/><path class="ab" d="M766.09,280.53c2.13-1.96,5.17-.97,7.71-.68,2.2,.26,4.1,.12,6.1-.86,1.73-.85,.22-3.44-1.51-2.59-2.83,1.38-5.97-.08-8.95-.04-2.1,.03-3.92,.62-5.47,2.05-1.42,1.31,.7,3.43,2.12,2.12h0Z"/></g><g class="x"><path class="ab" d="M775.05,310.87c12.87,15.46,19.14,35.4,30.9,51.71"/><path class="ab" d="M773.99,311.93c12.7,15.59,19.1,35.07,30.67,51.41,1.11,1.56,3.71,.07,2.59-1.51-11.72-16.56-18.26-36.21-31.14-52.02-1.22-1.5-3.33,.64-2.12,2.12h0Z"/></g><g class="x"><path class="ab" d="M886.52,292.72l-16.63,87.68"/><path class="ab" d="M885.07,292.32l-16.63,87.68c-.36,1.89,2.53,2.7,2.89,.8l16.63-87.68c.36-1.89-2.53-2.7-2.89-.8h0Z"/></g><g class="x"><path class="ab" d="M1057.26,384.42c1.93,0,1.93-3,0-3s-1.93,3,0,3h0Z"/></g><g class="x"><path class="ab" d="M974.77,417.98c1.93,0,1.93-3,0-3s-1.93,3,0,3h0Z"/></g><g class="x"><path class="ab" d="M971.28,395.84c1.93,0,1.93-3,0-3s-1.93,3,0,3h0Z"/></g><g class="x"><path class="ab" d="M1060.29,407.26c1.93,0,1.93-3,0-3s-1.93,3,0,3h0Z"/></g><g class="w"><path class="ab" d="M973.24,400.47c1.29,.81,2.14,2.28,2.18,3.81s-.73,3.04-1.98,3.92"/><path class="ab" d="M972.49,401.76c2.03,1.42,1.71,3.96-.1,5.37-1.52,1.19,.62,3.3,2.12,2.12,3.46-2.7,2.94-7.67-.51-10.08-1.59-1.11-3.09,1.49-1.51,2.59h0Z"/></g><g class="w"><path class="ab" d="M977.55,398.51c2.03,1.14,3.12,3.61,2.87,5.92s-1.72,4.39-3.67,5.66"/><path class="ab" d="M976.8,399.81c3.56,2.3,2.17,6.89-.8,8.99-1.56,1.11-.07,3.71,1.51,2.59,4.83-3.43,6.36-10.57,.8-14.17-1.63-1.05-3.13,1.54-1.51,2.59h0Z"/></g><g class="w"><path class="ab" d="M981.53,395.79c1.87,.07,3.04,2.05,3.56,3.85,.53,1.83,.77,3.74,.71,5.65-.03,1.01-.15,2.03-.5,2.98-.74,2-2.42,3.49-4.04,4.88"/><path class="ab" d="M981.13,397.24c3.08,.64,3.27,5.65,3.17,8.05-.13,3.08-1.92,4.91-4.1,6.81-1.46,1.27,.67,3.39,2.12,2.12,3.64-3.18,5.34-6.31,4.9-11.21-.31-3.49-1.38-7.84-5.3-8.66-1.88-.39-2.69,2.5-.8,2.89h0Z"/></g><g class="w"><path class="ab" d="M1057.71,390.26c-1.87,.48-3.03,2.68-2.57,4.56s2.3,3.25,4.23,3.39"/><path class="ab" d="M1057.32,388.81c-2.5,.83-4.14,3.34-3.69,6,.48,2.86,3.03,4.57,5.75,4.9,1.91,.23,1.9-2.77,0-3-2.45-.29-4.25-4.01-1.26-5,1.82-.61,1.04-3.5-.8-2.89h0Z"/></g><g class="w"><path class="ab" d="M1054.28,387.2c-2.96,1.93-4.71,5.57-4.38,9.09,.1,1.03,.4,2.11,1.21,2.75,.43,.34,.97,.52,1.5,.68,1.07,.32,2.15,.57,3.24,.77"/><path class="ab" d="M1053.53,385.91c-3.04,2.18-5.04,5.45-5.15,9.25-.14,4.74,2.96,5.98,7.08,6.77,1.89,.36,2.69-2.53,.8-2.89-2.86-.55-5.31-1.33-4.78-4.8,.36-2.35,1.64-4.36,3.57-5.73,1.56-1.11,.06-3.72-1.51-2.59h0Z"/></g><g class="w"><path class="ab" d="M1050.74,403.14c-2.19-.46-4.01-2.15-4.95-4.18s-1.06-4.37-.7-6.58c.26-1.59,.79-3.18,1.83-4.4"/><path class="ab" d="M1051.14,401.69c-5.48-1.56-5.85-8.96-2.92-12.96,1.14-1.56-1.46-3.06-2.59-1.51-4.14,5.66-2.56,15.3,4.71,17.37,1.86,.53,2.65-2.36,.8-2.89h0Z"/></g><g class="w"><path class="ab" d="M1006.48,411.94c4.62-.66,9.25-1.33,13.92-1.55,3.87-.19,7.9-.11,11.41-1.76"/><path class="ab" d="M1006.88,413.39c4.77-.68,9.53-1.3,14.35-1.54,3.82-.19,7.38-.36,10.97-1.78,1.77-.7,1-3.61-.8-2.89-4.4,1.74-8.99,1.51-13.63,1.88-3.92,.31-7.81,.88-11.7,1.43-1.9,.27-1.09,3.16,.8,2.89h0Z"/></g><g class="w"><path class="ab" d="M999.07,275.6c-2.63,3.18-2.94,7.74-2.04,11.76,.9,4.02,2.86,7.71,4.4,11.54,1.54,3.82,2.68,8.01,1.83,12.05-.41,1.94-1.26,3.76-1.76,5.69-1.25,4.79-.17,10.13,2.84,14.05,1.07,1.39,2.37,2.62,3.22,4.16,1.15,2.09,1.35,4.55,1.42,6.93,.1,3.38-.03,6.77-.37,10.13-.26,2.54-.65,5.12-.12,7.62,.42,2.02,1.42,3.87,2.18,5.79,1.98,5.01,2.29,10.67,.88,15.87"/><path class="ab" d="M997.78,274.85c-4.81,6.86-2.03,14.57,.97,21.56,2.61,6.08,4.08,11.25,1.98,17.7-1.19,3.65-1.61,7.22-.67,11,.86,3.46,2.8,5.9,4.92,8.67,3.31,4.33,2.7,10.45,2.34,15.61-.33,4.71-1.03,8.95,.68,13.47,2.32,6.1,3.61,11.4,2.09,17.93-.44,1.88,2.45,2.68,2.89,.8,.96-4.11,1.21-8.19,.37-12.36-1.01-5.04-3.86-9.13-3.53-14.45,.46-7.4,2.45-16.19-2.32-22.61-3.22-4.33-5.7-8.2-4.76-13.87,.72-4.38,2.69-7.98,2.14-12.58-1.15-9.7-11.2-19.83-4.51-29.36,1.11-1.58-1.49-3.08-2.59-1.51h0Z"/></g><g class="w"><path class="ab" d="M1034.19,246.25c1.93,0,1.93-3,0-3s-1.93,3,0,3h0Z"/></g><g class="w"><path class="ab" d="M1038.15,267.22c1.93,0,1.93-3,0-3s-1.93,3,0,3h0Z"/></g><g class="w"><path class="ab" d="M953.8,277.94c1.93,0,1.93-3,0-3s-1.93,3,0,3h0Z"/></g><g class="w"><path class="ab" d="M950.77,256.5c1.93,0,1.93-3,0-3s-1.93,3,0,3h0Z"/></g><g class="w"><path class="ab" d="M951.53,262.72c1.15,.61,1.71,1.99,1.7,3.29s-.49,2.54-.96,3.75"/><path class="ab" d="M950.77,264.01c1.82,1.14,.63,3.84,.05,5.35-.7,1.8,2.2,2.58,2.89,.8,1.17-3.01,1.76-6.75-1.42-8.74-1.64-1.03-3.15,1.57-1.51,2.59h0Z"/></g><g class="w"><path class="ab" d="M955.56,260.66c1.3,1.35,2.48,2.91,2.86,4.75s-.25,3.98-1.88,4.91"/><path class="ab" d="M954.49,261.72c1.62,1.73,4.12,5.39,1.28,7.3-1.59,1.07-.09,3.67,1.51,2.59,4.65-3.12,2.43-8.69-.68-12.01-1.32-1.41-3.44,.71-2.12,2.12h0Z"/></g><g class="w"><path class="ab" d="M961.17,271.22c1.71-1.85,2.53-4.49,2.15-6.98s-1.94-4.78-4.12-6.04"/><path class="ab" d="M962.23,272.28c4.15-4.93,3.19-11.87-2.27-15.38-1.63-1.05-3.14,1.55-1.51,2.59,3.74,2.4,4.55,7.24,1.66,10.66-1.24,1.47,.87,3.6,2.12,2.12h0Z"/></g><g class="w"><path class="ab" d="M1036.11,257.65c-1.58,.36-3.27-.92-3.51-2.52-.23-1.6,.9-3.24,2.44-3.73"/><path class="ab" d="M1035.71,256.21c-.8,.12-1.58-.65-1.64-1.41-.07-.85,.61-1.65,1.36-1.94,1.79-.68,1.01-3.58-.8-2.89-2.26,.86-3.97,3.06-3.48,5.58s2.93,3.94,5.35,3.56c1.9-.29,1.09-3.18-.8-2.89h0Z"/></g><g class="w"><path class="ab" d="M1031.07,260.95c-1.34-1.59-2.52-3.39-2.94-5.43-.42-2.04,.04-4.35,1.58-5.75"/><path class="ab" d="M1032.13,259.89c-2.02-2.48-4.03-6.28-1.36-9.06,1.34-1.39-.78-3.52-2.12-2.12-3.93,4.09-1.74,9.5,1.36,13.3,1.22,1.5,3.33-.64,2.12-2.12h0Z"/></g><g class="w"><path class="ab" d="M1027.67,263.57c-1.76-.37-2.77-2.21-3.37-3.91-.61-1.76-1.04-3.63-.86-5.49s1.05-3.71,2.59-4.77"/><path class="ab" d="M1028.07,262.13c-2.08-.71-2.75-3.68-3.05-5.58-.38-2.39,.16-4.55,2.07-6.09,1.5-1.21-.63-3.32-2.12-2.12-4.84,3.89-3.89,14.56,2.3,16.68,1.83,.63,2.62-2.27,.8-2.89h0Z"/></g><g class="w"><path class="ab" d="M976.17,251.66c12.39-.81,24.76-2.14,37.04-3.98"/><path class="ab" d="M976.17,253.16c12.53-.84,25.01-2.2,37.44-4.03,1.9-.28,1.09-3.17-.8-2.89-12.16,1.8-24.38,3.1-36.64,3.92-1.92,.13-1.93,3.13,0,3h0Z"/></g><path class="ab" d="M341.57,417.7c7.72,0,7.73-12,0-12s-7.73,12,0,12h0Z"/><path class="ab" d="M341.69,417.23c7.72,0,7.73-12,0-12s-7.73,12,0,12h0Z"/><path class="ab" d="M341.57,416.88c7.72,0,7.73-12,0-12s-7.73,12,0,12h0Z"/><path class="ab" d="M341.92,417.82c7.72,0,7.73-12,0-12s-7.73,12,0,12h0Z"/><path class="ab" d="M341.46,416.54c7.72,0,7.73-12,0-12s-7.73,12,0,12h0Z"/><path class="ab" d="M341.69,416.54c7.72,0,7.73-12,0-12s-7.73,12,0,12h0Z"/><path class="ab" d="M341.92,419.1c7.72,0,7.73-12,0-12s-7.73,12,0,12h0Z"/><path class="ab" d="M342.15,419.68c7.72,0,7.73-12,0-12s-7.73,12,0,12h0Z"/><path class="ab" d="M342.15,419.68c7.72,0,7.73-12,0-12s-7.73,12,0,12h0Z"/><path class="ab" d="M342.5,421.78c7.72,0,7.73-12,0-12s-7.73,12,0,12h0Z"/><path class="ab" d="M342.5,421.78c7.72,0,7.73-12,0-12s-7.73,12,0,12h0Z"/><path class="ab" d="M342.97,424.92c7.72,0,7.73-12,0-12s-7.73,12,0,12h0Z"/><path class="ab" d="M342.97,424.92c7.72,0,7.73-12,0-12s-7.73,12,0,12h0Z"/><path class="ab" d="M342.62,422.13c7.72,0,7.73-12,0-12s-7.73,12,0,12h0Z"/><path class="ab" d="M342.62,422.24c7.72,0,7.73-12,0-12s-7.73,12,0,12h0Z"/><g><path class="ab" d="M342.19,413.33l-.48-3.26"/><path class="ab" d="M347.98,411.73l-.48-3.26c-.21-1.38-1.61-2.91-2.76-3.59-1.29-.75-3.18-1.07-4.62-.6s-2.85,1.37-3.59,2.76l-.6,1.43c-.29,1.06-.29,2.13,0,3.19l.48,3.26c.21,1.38,1.61,2.91,2.76,3.59,1.29,.75,3.18,1.07,4.62,.6s2.85-1.37,3.59-2.76l.6-1.43c.29-1.06,.29-2.13,0-3.19h0Z"/></g><line class="r" x1="341.6" y1="370.69" x2="351.6" y2="443.69"/><polygon class="v" points="313.6 367.69 323.6 366.69 346.6 409.69 353.18 454.62 340.68 497.6 310.6 459.99 304.28 416.01 313.6 367.69"/><polygon class="v" points="250.6 338.69 236.9 359.24 296.6 365.69 316.6 347.69 250.6 338.69"/><polygon class="v" points="317.07 346.92 338.61 360.37 396.6 338.69 375.6 323.69 317.07 346.92"/><polygon class="v" points="253.66 338.42 371.97 324.13 316.6 347.69 253.66 338.42"/><polygon class="v" points="305.69 357.64 313.6 367.69 323.6 366.69 327.6 354.69 317.07 347.96 305.69 357.64"/><polyline class="v" points="306.6 427.69 306.6 427.69 340.09 422.91 340.6 426.69 307.12 431.62"/><line class="p" x1="296.6" y1="365.69" x2="236.6" y2="359.69"/><line class="p" x1="339" y1="360.13" x2="397.6" y2="338.69"/><line class="p" x1="236.6" y1="359.69" x2="250.6" y2="338.69"/><line class="p" x1="397.6" y1="338.69" x2="375.6" y2="323.69"/><line class="p" x1="250.6" y1="338.69" x2="316.6" y2="347.69"/><line class="p" x1="375.6" y1="323.69" x2="316.6" y2="347.69"/><line class="n" x1="313.13" y1="367.72" x2="323.63" y2="367.22"/><line class="n" x1="327.6" y1="354.69" x2="323.6" y2="366.69"/><line class="n" x1="305.6" y1="357.69" x2="313.6" y2="367.69"/><line class="n" x1="313.28" y1="368.01" x2="305.1" y2="416.19"/><line class="n" x1="323.6" y1="366.69" x2="346.1" y2="410.19"/><line class="n" x1="312.1" y1="461.19" x2="340.28" y2="499.01"/><line class="n" x1="352.1" y1="455.19" x2="340.28" y2="499.01"/><line class="n" x1="312.1" y1="461.19" x2="305.1" y2="416.19"/><line class="n" x1="352.1" y1="455.19" x2="346.1" y2="410.19"/><line class="p" x1="338.61" y1="360.37" x2="316.6" y2="347.69"/><line class="p" x1="250.6" y1="338.69" x2="375.6" y2="323.69"/><line class="p" x1="316.6" y1="347.69" x2="296.28" y2="366.01"/></g><g><g><polygon class="u" points="414.39 338.15 409.52 349.4 358.57 355.82 363.44 344.56 414.39 338.15"/><polygon class="u" points="320.13 350.01 315.26 361.27 264.31 367.68 269.18 356.42 320.13 350.01"/><polygon class="u" points="269.18 356.42 264.31 367.68 259.33 335.39 264.21 324.13 269.18 356.42"/><polygon class="u" points="384.54 481.6 379.67 492.86 336.36 498.31 341.23 487.05 384.54 481.6"/><polyline class="u" points="341.23 487.05 336.36 498.31 315.26 361.27 320.13 350.01"/><polygon class="t" points="409.42 305.85 414.39 338.15 363.44 344.56 384.54 481.6 341.23 487.05 320.13 350.01 269.18 356.42 264.21 324.13 409.42 305.85"/></g><g class="al"><g class="ai"><path class="u" d="M554.5,341.56c-.99-4.87-3.12-8.93-6.36-12.21-3.25-3.28-3.19-11.72-9.45-13.07-4.37-.91-11.98-1.22-17.1-1.09-5.12,.13-14.93,2.57-22.45,3.28h-14.97l-12.93,19.02,22.02-2.09c7.52-.71,13.83-1.14,18.96-1.27,5.12-.13,9.87,.26,14.25,1.17,6.27,1.36,11.01,3.68,14.27,6.96,3.24,3.28,5.36,7.35,6.36,12.21,1.12,5.48,1,10.01-.37,13.59l7.41-12.9c1.37-3.59,1.49-8.11,.37-13.59Z"/></g><path class="i" d="M554.14,355.15l-7.41,12.9c1.37-3.59,1.49-8.11,.37-13.59-.99-4.87-3.12-8.93-6.36-12.21-3.25-3.28-8-5.6-14.27-6.96-4.37-.91-9.13-1.3-14.25-1.17s-11.44,.56-18.96,1.27l7.41-12.9c7.52-.71,13.83-1.14,18.96-1.27s9.87,.26,14.25,1.17c6.27,1.36,11.01,3.68,14.27,6.96,3.24,3.28,5.36,7.35,6.36,12.21,1.12,5.48,1,10.01-.37,13.59Z"/></g><g class="al"><g class="ah"><g class="al"><path class="s" d="M549.54,355.07l-4.87,11.26c.32-.74,.59-1.5,.81-2.27l4.87-11.26c-.22,.78-.49,1.54-.81,2.27"/></g></g><path class="i" d="M549.54,355.07l-4.87,11.26c.32-.74,.59-1.5,.81-2.27l4.87-11.26c-.22,.78-.49,1.54-.81,2.27Z"/></g><g class="al"><g class="ak"><g class="al"><path class="q" d="M591.54,359.86l-4.87,11.26c-.42,.96-.87,1.9-1.36,2.82-.33,.62-.68,1.24-1.03,1.85l4.87-11.26c.35-.61,.7-1.22,1.03-1.85,.49-.92,.94-1.86,1.36-2.82"/><path class="u" d="M589.15,364.53l-4.87,11.26c-4.66,8.01-11.28,14.83-19.85,20.43l4.87-11.26c8.57-5.6,15.19-12.41,19.85-20.43"/></g></g><path class="i" d="M591.54,359.86l-4.87,11.26c-.42,.96-.87,1.9-1.36,2.82-4.7,8.82-11.66,16.25-20.88,22.28l4.87-11.26c9.22-6.03,16.18-13.46,20.88-22.28,.49-.92,.94-1.86,1.36-2.82Z"/></g><polygon class="u" points="527.98 400.25 523.1 411.51 507.59 413.46 512.46 402.2 527.98 400.25"/><polygon class="u" points="638.39 449.65 633.52 460.91 580.72 467.55 585.59 456.29 638.39 449.65"/><polygon class="u" points="585.59 456.29 580.72 467.55 523.1 411.51 527.98 400.25 585.59 456.29"/><polygon class="u" points="478.94 469.72 474.07 480.98 447.99 311.64 452.87 300.38 478.94 469.72"/><polygon class="u" points="522.02 464.3 517.15 475.55 474.07 480.98 478.94 469.72 522.02 464.3"/><path class="t" d="M569.3,384.96l69.1,64.69-52.8,6.65-57.62-56.04-15.52,1.95,9.56,62.09-43.08,5.42-26.08-169.34,69.36-8.73c9.57-1.2,18-1.66,25.28-1.38,7.28,.28,14.22,1.9,20.82,4.85,6.77,3.09,12.42,7.38,16.97,12.87,4.55,5.5,7.53,12.83,8.94,22.01,2,12.96,.64,23.86-4.06,32.68-4.7,8.82-11.66,16.25-20.88,22.28Zm-18.95-32.16c.9-3.13,.98-7.07,.24-11.86-.65-4.24-2.05-7.79-4.18-10.65-2.14-2.86-5.26-4.89-9.38-6.07-2.88-.79-6-1.13-9.37-1.02s-7.52,.49-12.46,1.11l-14.47,1.82,7.02,45.6,12.39-1.56c6.02-.76,11.08-1.76,15.17-3.01s7.43-3.24,10.01-5.96c2.45-2.47,4.13-5.27,5.02-8.4"/><polygon class="u" points="741.15 294.24 736.27 305.5 711.49 308.62 716.36 297.36 741.15 294.24"/><polygon class="u" points="673.06 302.81 668.18 314.07 643.4 317.19 648.28 305.93 673.06 302.81"/><polygon class="u" points="648.28 305.93 643.4 317.19 638.85 287.62 643.72 276.36 648.28 305.93"/><polygon class="u" points="690.03 413 685.15 424.26 668.18 314.07 673.06 302.81 690.03 413"/><polygon class="t" points="736.59 264.67 741.15 294.24 716.36 297.36 733.33 407.55 758.11 404.43 762.67 434.01 669.8 445.69 665.25 416.12 690.03 413 673.06 302.81 648.28 305.93 643.72 276.36 736.59 264.67"/><polygon class="u" points="762.67 434.01 757.8 445.26 664.93 456.95 669.8 445.69 762.67 434.01"/><polygon class="u" points="669.8 445.69 664.93 456.95 660.37 427.38 665.25 416.12 669.8 445.69"/><polygon class="u" points="871.35 364.68 866.48 375.94 886.34 256.46 891.21 245.21 871.35 364.68"/><polygon class="t" points="934.98 239.7 901.77 416.5 856.6 422.18 771.24 260.31 816.17 254.65 871.35 364.68 891.21 245.21 934.98 239.7"/><polygon class="u" points="901.77 416.5 896.9 427.75 851.73 433.44 856.6 422.18 901.77 416.5"/><polygon class="u" points="856.6 422.18 851.73 433.44 766.37 271.57 771.24 260.31 856.6 422.18"/><polygon class="u" points="1067.05 253.22 1062.17 264.48 1037.39 267.6 1042.26 256.34 1067.05 253.22"/><polygon class="u" points="998.96 261.79 994.08 273.05 969.3 276.17 974.18 264.91 998.96 261.79"/><polygon class="u" points="974.18 264.91 969.3 276.17 964.75 246.59 969.62 235.34 974.18 264.91"/><polygon class="u" points="1015.93 371.98 1011.05 383.24 994.08 273.05 998.96 261.79 1015.93 371.98"/><polygon class="t" points="1062.49 223.65 1067.05 253.22 1042.26 256.34 1059.23 366.53 1084.01 363.41 1088.57 392.98 995.7 404.67 991.15 375.1 1015.93 371.98 998.96 261.79 974.18 264.91 969.62 235.34 1062.49 223.65"/><polygon class="u" points="1088.57 392.98 1083.7 404.24 990.83 415.93 995.7 404.67 1088.57 392.98"/><polygon class="u" points="995.7 404.67 990.83 415.93 986.27 386.36 991.15 375.1 995.7 404.67"/><g class="x"><path class="ac" d="M572,303.61c6.71,6.79,10.49,13.47,13.32,22.56,2.59,8.3,3.96,21.62-1.82,29.01-1.18,1.5,.93,3.64,2.12,2.12,5.83-7.46,5.66-19.93,3.51-28.72-2.62-10.71-7.27-19.26-15-27.09-1.36-1.38-3.48,.75-2.12,2.12h0Z"/></g><g class="x"><path class="ac" d="M498.65,328.56l-.53-2.31c-.08-.35-.16-.7-.24-1.05-.04-.17-.08-.35-.12-.52-.03-.26-.16-.17-.39,.26,0,.05,4.63-.26,5.04-.28,1.92-.1,1.93-3.1,0-3l-4.11,.22c-1.1,.06-2.24,.07-3.01,.99-.66,.78-.59,1.77-.4,2.71,.25,1.27,.58,2.53,.87,3.79,.43,1.88,3.32,1.08,2.89-.8h0Z"/></g><g class="x"><path class="ac" d="M493.55,326.7c-.26-.95-.49-1.9-.67-2.86-.06-.31-.31-1.13-.23-1.44-.05,.21-.41,.02,.21,.08,1.31,.12,2.52-.04,3.56-.89,1.5-1.22-.64-3.33-2.12-2.12-.31,.26-1.58,0-2.01,.04-.87,.09-1.68,.41-2.18,1.16-.63,.92-.45,1.97-.29,3.01,.2,1.29,.49,2.56,.84,3.82,.51,1.86,3.4,1.07,2.89-.8h0Z"/></g><g class="x"><path class="ac" d="M488.31,321.19c-.69-.92-1.09-1.87-1.27-3l-1.05,1.85c.8-.3,1.63-.47,2.48-.34,.8,.13,1.61-.2,1.85-1.05,.2-.71-.24-1.72-1.05-1.85-1.39-.22-2.75-.16-4.07,.34-.82,.31-1.19,.98-1.05,1.85,.22,1.34,.76,2.63,1.57,3.72,.48,.65,1.3,.98,2.05,.54,.64-.37,1.03-1.4,.54-2.05h0Z"/></g><g class="x"><path class="ac" d="M514.51,397.84c4.17-.63,10.94-3,14.35,.1,2.18,1.98,3.86,4.19,6.32,5.91,1.59,1.11,3.09-1.49,1.51-2.59-3.17-2.22-5.54-6.84-9.38-7.8-4.05-1-9.56,.87-13.6,1.48-1.9,.29-1.09,3.18,.8,2.89h0Z"/></g><g class="x"><path class="ac" d="M519.69,392.39c2.19,.53,4,.32,6.19,.36,2.89,.05,4.96,1.8,7.32,3.3,1.64,1.04,3.14-1.56,1.51-2.59-1.96-1.25-4.24-3.33-6.57-3.8-1.1-.22-2.14,.12-3.23,.22-1.51,.14-2.96-.03-4.42-.38-1.88-.45-2.68,2.44-.8,2.89h0Z"/></g><g class="x"><path class="ac" d="M605.38,449.45c6.28-1.62,12.63-2.49,19.11-2.62,1.93-.04,1.93-3.04,0-3-6.75,.14-13.37,1.04-19.91,2.73-1.87,.48-1.08,3.38,.8,2.89h0Z"/></g><g class="x"><path class="ac" d="M484.41,463.17c-.41-9.4-1.54-18.69-3.37-27.92-.38-1.89-3.27-1.09-2.89,.8,1.78,8.96,2.87,17.99,3.27,27.12,.08,1.92,3.08,1.93,3,0h0Z"/></g><g class="x"><path class="ac" d="M490.09,461.79c-.62-5.28-1.15-10.58-1.58-15.88-.16-1.91-3.16-1.93-3,0,.43,5.3,.96,10.59,1.58,15.88,.22,1.89,3.22,1.92,3,0h0Z"/></g><g class="x"><path class="ac" d="M495.48,461.82c-.79-2.77-1.27-5.57-1.42-8.44-.1-1.92-3.11-1.93-3,0,.17,3.14,.67,6.22,1.53,9.24,.53,1.85,3.42,1.07,2.89-.8h0Z"/></g><g class="x"><path class="ac" d="M462.34,316.9c-.94-2.68-1.48-6.49,.07-9.11s6.65-2.48,9.23-2.54c1.93-.04,1.93-3.04,0-3-3.54,.08-9.17,.17-11.45,3.42s-2.03,8.36-.75,12.02c.63,1.81,3.53,1.03,2.89-.8h0Z"/></g><g class="x"><path class="ac" d="M648.19,281.35c1.23,6.19,2.11,12.42,2.63,18.71,.16,1.91,3.16,1.93,3,0-.54-6.56-1.45-13.06-2.74-19.51-.38-1.89-3.27-1.09-2.89,.8h0Z"/></g><g class="x"><path class="ac" d="M658.98,300.2l6.05-.56c1.91-.18,1.92-3.18,0-3l-6.05,.56c-1.91,.18-1.92,3.18,0,3h0Z"/></g><g class="x"><path class="ac" d="M661.3,295.03c1.93,0,1.93-3,0-3s-1.93,3,0,3h0Z"/></g><g class="x"><path class="ac" d="M731.9,267.9c.43,6.71,1.31,13.35,2.67,19.93,.39,1.89,3.28,1.09,2.89-.8-1.3-6.33-2.15-12.69-2.56-19.14-.12-1.92-3.12-1.93-3,0h0Z"/></g><g class="x"><path class="ac" d="M722.83,271.35l5.59-.53c1.91-.18,1.92-3.18,0-3l-5.59,.53c-1.91,.18-1.92,3.18,0,3h0Z"/></g><g class="x"><path class="ac" d="M727.01,275.45c1.93,0,1.93-3,0-3s-1.93,3,0,3h0Z"/></g><g class="x"><path class="ac" d="M681.81,309.94c1.93,0,1.93-3,0-3s-1.93,3,0,3h0Z"/></g><g class="x"><path class="ac" d="M726.08,404.07c1.93,0,1.93-3,0-3s-1.93,3,0,3h0Z"/></g><g class="x"><path class="ac" d="M712.57,302.02c1.93,0,1.93-3,0-3s-1.93,3,0,3h0Z"/></g><g class="x"><path class="ac" d="M698.12,409.2c1.93,0,1.93-3,0-3s-1.93,3,0,3h0Z"/></g><g class="x"><path class="ac" d="M670.45,418.89c.54,7.03,1.48,14,2.82,20.92,.37,1.89,3.26,1.09,2.89-.8-1.29-6.66-2.2-13.36-2.72-20.12-.15-1.91-3.15-1.93-3,0h0Z"/></g><g class="x"><path class="ac" d="M677.6,420.27l6.55-.62c1.91-.18,1.92-3.18,0-3l-6.55,.62c-1.91,.18-1.92,3.18,0,3h0Z"/></g><g class="x"><path class="ac" d="M681.34,424.58c1.93,0,1.93-3,0-3s-1.93,3,0,3h0Z"/></g><g class="x"><path class="ac" d="M752.85,411.9c1.78,5.32,3.06,10.75,3.77,16.32,.24,1.89,3.24,1.91,3,0-.75-5.84-2.01-11.53-3.88-17.12-.61-1.82-3.51-1.04-2.89,.8h0Z"/></g><g class="x"><path class="ac" d="M747.91,431.96l6.05-.96c1.9-.3,1.09-3.19-.8-2.89l-6.05,.96c-1.9,.3-1.09,3.19,.8,2.89h0Z"/></g><g class="x"><path class="ac" d="M749.38,424.11c1.93,0,1.93-3,0-3s-1.93,3,0,3h0Z"/></g><g class="x"><path class="ac" d="M676.7,287.97c1.55-1.82,3.98-4.9,6.33-5.66,1.34-.43,.87-1,1.8,.1,.69,.82-.86,5.53-1.21,6.68-.23,.75,.27,1.67,1.05,1.85,3.56,.8,6.15-.74,8.76-3.12,.94-.85,1.76-2.19,2.93-2.72,.54-.88,1.13-.97,1.79-.26,1.17,.28,1.21,.87,.11,1.77-.31,1.28-1.6,2.23-1.35,3.69,1.46,8.48,14.71-6.51,15.98-8.07s-.9-3.62-2.12-2.12c-1.37,1.68-2.8,3.32-4.36,4.83-.82,.8-5.1,5.31-5.56,3.18-.21-.96,1.97-2.81,2.07-4.05,.06-.77-.13-1.56-.65-2.2-1.22-1.48-3.5-1.32-5.1-.76-4.12,1.43-6.79,8.02-11.7,6.92l1.05,1.85c.66-2.18,3.41-10.78-.43-11.92-3.59-1.06-9.59,5.64-11.5,7.88-1.24,1.46,.87,3.59,2.12,2.12h0Z"/></g><g class="x"><path class="ac" d="M700.52,424.51c.83-.52,2.77-2.2,3.81-2.4,.77-.81,1.52-.62,2.23,.57l-.95,.99c-.45,1.39-1.32,1.83-.87,3.41,.66,2.34,3.03,2.56,5.08,1.89,3.66-1.2,6.52-4.79,9.47-7.08,1.4-1.08,6.69-4.51,4.97-.93-1.09,2.26-5.98,5.34-7.83,6.99-.83,.74-.41,2.26,.66,2.51,5.75,1.33,11.17,.6,16.36-2.21,1.7-.92,.19-3.51-1.51-2.59-4.49,2.43-9.07,3.06-14.05,1.91l.66,2.51c2.93-2.61,7.75-5.54,9.71-8.97,.73-1.28,1.13-2.9-.01-4.13-2.98-3.23-9.15,1.2-11.45,3.08-1.22,1-2.37,2.09-3.58,3.11-.82,.69-5.34,5.18-4.53,1.65,.41-1.81,2.95-2.09,2.18-4.7-1.7-5.77-9.57,.38-11.86,1.82-1.63,1.03-.13,3.62,1.51,2.59h0Z"/></g><g class="x"><path class="ac" d="M682.4,319.05c6.34,26.05,10.23,52.58,11.62,79.35,.1,1.92,3.1,1.93,3,0-1.4-27.03-5.32-53.84-11.72-80.14-.46-1.87-3.35-1.08-2.89,.8h0Z"/></g><g class="x"><path class="ac" d="M711.9,311.12c4.2,26.23,7.86,52.53,10.98,78.91,.22,1.89,3.23,1.92,3,0-3.15-26.64-6.85-53.22-11.08-79.71-.3-1.9-3.2-1.09-2.89,.8h0Z"/></g><g class="x"><path class="ac" d="M583.6,347.01c.31-6.18,1.15-13.14-.81-19.13-1.56-4.77-4.07-9.68-7.34-13.48-1.26-1.47-3.38,.66-2.12,2.12,3.13,3.63,6.01,9.11,7.03,13.76,1.17,5.32,.51,11.33,.24,16.73-.1,1.93,2.9,1.92,3,0h0Z"/></g><g class="x"><path class="ac" d="M577.69,340.72c.26-5.42-1.16-10.61-4.14-15.15-1.06-1.61-3.65-.11-2.59,1.51,2.72,4.14,3.97,8.69,3.73,13.64-.09,1.93,2.91,1.93,3,0h0Z"/></g><g class="x"><path class="ac" d="M618.31,441.82c1.93,0,1.93-3,0-3s-1.93,3,0,3h0Z"/></g><g class="x"><path class="ac" d="M614.47,436.58c1.93,0,1.93-3,0-3s-1.93,3,0,3h0Z"/></g><g class="x"><path class="ac" d="M610.28,432.04c1.93,0,1.93-3,0-3s-1.93,3,0,3h0Z"/></g><g class="x"><path class="ac" d="M864.1,369.37c1.25,3.01,4.24,6.99,7.91,6.91s5.82-5.71,6.76-8.61c.6-1.84-2.3-2.63-2.89-.8s-1.87,5.64-3.9,6.05c-2.18,.44-4.25-2.57-4.99-4.35s-3.63-.99-2.89,.8h0Z"/></g><g class="x"><path class="ac" d="M866.86,379.25c2.98,4.37,9.35,3.55,11.04-1.49,.62-1.83-2.28-2.62-2.89-.8-.84,2.51-4.05,2.98-5.56,.77-1.08-1.58-3.68-.09-2.59,1.51h0Z"/></g><g class="x"><path class="ac" d="M870.28,387.76c1.7,1.24,4.19,.92,5.62-.57,1.34-1.39-.78-3.52-2.12-2.12-.58,.61-1.34,.57-1.99,.1s-1.67-.11-2.05,.54c-.44,.76-.12,1.57,.54,2.05h0Z"/></g><g class="x"><path class="ac" d="M897.93,413.16c1.93,0,1.93-3,0-3s-1.93,3,0,3h0Z"/></g><g class="x"><path class="ac" d="M892.45,410.68c.36-1.41,1.54-2.59,3.03-2.72,.81-.07,1.5-.64,1.5-1.5,0-.75-.69-1.58-1.5-1.5-2.81,.26-5.22,2.15-5.93,4.93-.48,1.87,2.41,2.67,2.89,.8h0Z"/></g><g class="x"><path class="ac" d="M861.58,417.36c1.93,0,1.93-3,0-3s-1.93,3,0,3h0Z"/></g><g class="x"><path class="ac" d="M867.22,415.07c.98-1.96,.14-4.18-1.81-5.18-2.56-1.31-5.87,.12-8.41,.79-1.87,.49-1.08,3.38,.8,2.89,1.31-.34,2.61-.74,3.94-1.01,.38-.08,3.61-.43,2.9,1-.86,1.72,1.73,3.24,2.59,1.51h0Z"/></g><g class="x"><path class="ac" d="M894.08,253.55c1.93,0,1.93-3,0-3s-1.93,3,0,3h0Z"/></g><g class="x"><path class="ac" d="M894.78,251.22c1.93,0,1.93-3,0-3s-1.93,3,0,3h0Z"/></g><g class="x"><path class="ac" d="M896.41,249.36c1.93,0,1.93-3,0-3s-1.93,3,0,3h0Z"/></g><g class="x"><path class="ac" d="M897.11,251.22c1.93,0,1.93-3,0-3s-1.93,3,0,3h0Z"/></g><g class="x"><path class="ac" d="M895.95,253.08c1.93,0,1.93-3,0-3s-1.93,3,0,3h0Z"/></g><g class="x"><path class="ac" d="M897.81,253.08c1.93,0,1.93-3,0-3s-1.93,3,0,3h0Z"/></g><g class="x"><path class="ac" d="M927.4,245.16c1.93,0,1.93-3,0-3s-1.93,3,0,3h0Z"/></g><g class="x"><path class="ac" d="M929.73,244.93c1.93,0,1.93-3,0-3s-1.93,3,0,3h0Z"/></g><g class="x"><path class="ac" d="M931.36,244.7c1.93,0,1.93-3,0-3s-1.93,3,0,3h0Z"/></g><g class="x"><path class="ac" d="M928.8,246.79c1.93,0,1.93-3,0-3s-1.93,3,0,3h0Z"/></g><g class="x"><path class="ac" d="M930.43,246.09c1.93,0,1.93-3,0-3s-1.93,3,0,3h0Z"/></g><g class="x"><path class="ac" d="M930.2,248.42c1.93,0,1.93-3,0-3s-1.93,3,0,3h0Z"/></g><g class="x"><path class="ac" d="M905.6,250.76c2.57-2.07,7.33-.57,10.36-.77,2.44-.16,4.65-.77,6.71-2.11,1.61-1.05,.11-3.65-1.51-2.59-5.48,3.57-12.59-.75-17.67,3.34-1.5,1.21,.63,3.32,2.12,2.12h0Z"/></g><g class="x"><path class="ac" d="M809.03,260.54c1.93,0,1.93-3,0-3s-1.93,3,0,3h0Z"/></g><g class="x"><path class="ac" d="M811.13,260.31c1.93,0,1.93-3,0-3s-1.93,3,0,3h0Z"/></g><g class="x"><path class="ac" d="M813.46,259.84c1.93,0,1.93-3,0-3s-1.93,3,0,3h0Z"/></g><g class="x"><path class="ac" d="M813.69,261.47c1.93,0,1.93-3,0-3s-1.93,3,0,3h0Z"/></g><g class="x"><path class="ac" d="M810.9,261.94c1.93,0,1.93-3,0-3s-1.93,3,0,3h0Z"/></g><g class="x"><path class="ac" d="M812.99,263.1c1.93,0,1.93-3,0-3s-1.93,3,0,3h0Z"/></g><g class="x"><path class="ac" d="M777.81,264.97c1.93,0,1.93-3,0-3s-1.93,3,0,3h0Z"/></g><g class="x"><path class="ac" d="M779.91,264.5c1.93,0,1.93-3,0-3s-1.93,3,0,3h0Z"/></g><g class="x"><path class="ac" d="M782.47,264.04c1.93,0,1.93-3,0-3s-1.93,3,0,3h0Z"/></g><g class="x"><path class="ac" d="M781.77,266.13c1.93,0,1.93-3,0-3s-1.93,3,0,3h0Z"/></g><g class="x"><path class="ac" d="M780.14,266.37c1.93,0,1.93-3,0-3s-1.93,3,0,3h0Z"/></g><g class="x"><path class="ac" d="M782,268.23c1.93,0,1.93-3,0-3s-1.93,3,0,3h0Z"/></g><g class="x"><path class="ac" d="M790.26,264.53c2.13-1.96,5.17-.97,7.71-.68,2.2,.26,4.1,.12,6.1-.86,1.73-.85,.22-3.44-1.51-2.59-2.83,1.38-5.97-.08-8.95-.04-2.1,.03-3.92,.62-5.47,2.05-1.42,1.31,.7,3.43,2.12,2.12h0Z"/></g><g class="x"><path class="ac" d="M798.15,295.93c12.7,15.59,19.1,35.07,30.67,51.41,1.11,1.56,3.71,.07,2.59-1.51-11.72-16.56-18.26-36.21-31.14-52.02-1.22-1.5-3.33,.64-2.12,2.12h0Z"/></g><g class="x"><path class="ac" d="M909.23,276.32l-16.63,87.68c-.36,1.89,2.53,2.7,2.89,.8l16.63-87.68c.36-1.89-2.53-2.7-2.89-.8h0Z"/></g><g class="x"><path class="ac" d="M1081.42,368.42c1.93,0,1.93-3,0-3s-1.93,3,0,3h0Z"/></g><g class="x"><path class="ac" d="M998.94,401.98c1.93,0,1.93-3,0-3s-1.93,3,0,3h0Z"/></g><g class="x"><path class="ac" d="M995.44,379.84c1.93,0,1.93-3,0-3s-1.93,3,0,3h0Z"/></g><g class="x"><path class="ac" d="M1084.45,391.26c1.93,0,1.93-3,0-3s-1.93,3,0,3h0Z"/></g><g class="w"><path class="ac" d="M996.65,385.76c2.03,1.42,1.71,3.96-.1,5.37-1.52,1.19,.62,3.3,2.12,2.12,3.46-2.7,2.94-7.67-.51-10.08-1.59-1.11-3.09,1.49-1.51,2.59h0Z"/></g><g class="w"><path class="ac" d="M1000.96,383.81c3.56,2.3,2.17,6.89-.8,8.99-1.56,1.11-.07,3.71,1.51,2.59,4.83-3.43,6.36-10.57,.8-14.17-1.63-1.05-3.13,1.54-1.51,2.59h0Z"/></g><g class="w"><path class="ac" d="M1005.29,381.24c3.08,.64,3.27,5.65,3.17,8.05-.13,3.08-1.92,4.91-4.1,6.81-1.46,1.27,.67,3.39,2.12,2.12,3.64-3.18,5.34-6.31,4.9-11.21-.31-3.49-1.38-7.84-5.3-8.66-1.88-.39-2.69,2.5-.8,2.89h0Z"/></g><g class="w"><path class="ac" d="M1081.48,372.81c-2.5,.83-4.14,3.34-3.69,6,.48,2.86,3.03,4.57,5.75,4.9,1.91,.23,1.9-2.77,0-3-2.45-.29-4.25-4.01-1.26-5,1.82-.61,1.04-3.5-.8-2.89h0Z"/></g><g class="w"><path class="ac" d="M1077.69,369.91c-3.04,2.18-5.04,5.45-5.15,9.25-.14,4.74,2.96,5.98,7.08,6.77,1.89,.36,2.69-2.53,.8-2.89-2.86-.55-5.31-1.33-4.78-4.8,.36-2.35,1.64-4.36,3.57-5.73,1.56-1.11,.06-3.72-1.51-2.59h0Z"/></g><g class="w"><path class="ac" d="M1075.3,385.69c-5.48-1.56-5.85-8.96-2.92-12.96,1.14-1.56-1.46-3.06-2.59-1.51-4.14,5.66-2.56,15.3,4.71,17.37,1.86,.53,2.65-2.36,.8-2.89h0Z"/></g><g class="w"><path class="ac" d="M1031.04,397.39c4.77-.68,9.53-1.3,14.35-1.54,3.82-.19,7.38-.36,10.97-1.78,1.77-.7,1-3.61-.8-2.89-4.4,1.74-8.99,1.51-13.63,1.88-3.92,.31-7.81,.88-11.7,1.43-1.9,.27-1.09,3.16,.8,2.89h0Z"/></g><g class="w"><path class="ac" d="M1021.94,258.85c-4.81,6.86-2.03,14.57,.97,21.56,2.61,6.08,4.08,11.25,1.98,17.7-1.19,3.65-1.61,7.22-.67,11,.86,3.46,2.8,5.9,4.92,8.67,3.31,4.33,2.7,10.45,2.34,15.61-.33,4.71-1.03,8.95,.68,13.47,2.32,6.1,3.61,11.4,2.09,17.93-.44,1.88,2.45,2.68,2.89,.8,.96-4.11,1.21-8.19,.37-12.36-1.01-5.04-3.86-9.13-3.53-14.45,.46-7.4,2.45-16.19-2.32-22.61-3.22-4.33-5.7-8.2-4.76-13.87,.72-4.38,2.69-7.98,2.14-12.58-1.15-9.7-11.2-19.83-4.51-29.36,1.11-1.58-1.49-3.08-2.59-1.51h0Z"/></g><g class="w"><path class="ac" d="M1058.35,230.25c1.93,0,1.93-3,0-3s-1.93,3,0,3h0Z"/></g><g class="w"><path class="ac" d="M1062.31,251.22c1.93,0,1.93-3,0-3s-1.93,3,0,3h0Z"/></g><g class="w"><path class="ac" d="M977.96,261.94c1.93,0,1.93-3,0-3s-1.93,3,0,3h0Z"/></g><g class="w"><path class="ac" d="M974.94,240.5c1.93,0,1.93-3,0-3s-1.93,3,0,3h0Z"/></g><g class="w"><path class="ac" d="M974.93,248.01c1.82,1.14,.63,3.84,.05,5.35-.7,1.8,2.2,2.58,2.89,.8,1.17-3.01,1.76-6.75-1.42-8.74-1.64-1.03-3.15,1.57-1.51,2.59h0Z"/></g><g class="w"><path class="ac" d="M978.66,245.72c1.62,1.73,4.12,5.39,1.28,7.3-1.59,1.07-.09,3.67,1.51,2.59,4.65-3.12,2.43-8.69-.68-12.01-1.32-1.41-3.44,.71-2.12,2.12h0Z"/></g><g class="w"><path class="ac" d="M986.39,256.28c4.15-4.93,3.19-11.87-2.27-15.38-1.63-1.05-3.14,1.55-1.51,2.59,3.74,2.4,4.55,7.24,1.66,10.66-1.24,1.47,.87,3.6,2.12,2.12h0Z"/></g><g class="w"><path class="ac" d="M1059.87,240.21c-.8,.12-1.58-.65-1.64-1.41-.07-.85,.61-1.65,1.36-1.94,1.79-.68,1.01-3.58-.8-2.89-2.26,.86-3.97,3.06-3.48,5.58s2.93,3.94,5.35,3.56c1.9-.29,1.09-3.18-.8-2.89h0Z"/></g><g class="w"><path class="ac" d="M1056.29,243.89c-2.02-2.48-4.03-6.28-1.36-9.06,1.34-1.39-.78-3.52-2.12-2.12-3.93,4.09-1.74,9.5,1.36,13.3,1.22,1.5,3.33-.64,2.12-2.12h0Z"/></g><g class="w"><path class="ac" d="M1052.23,246.13c-2.08-.71-2.75-3.68-3.05-5.58-.38-2.39,.16-4.55,2.07-6.09,1.5-1.21-.63-3.32-2.12-2.12-4.84,3.89-3.89,14.56,2.3,16.68,1.83,.63,2.62-2.27,.8-2.89h0Z"/></g><g class="w"><path class="ac" d="M1000.33,237.16c12.53-.84,25.01-2.2,37.44-4.03,1.9-.28,1.09-3.17-.8-2.89-12.16,1.8-24.38,3.1-36.64,3.92-1.92,.13-1.93,3.13,0,3h0Z"/></g></g><polygon points="337.2 351.07 347.3 349.1 365.02 394.02 372.02 456.02 362.02 479.02 345.02 459.02 334.02 399.02 337.2 351.07"/><line class="m" x1="337.2" y1="351.98" x2="334.02" y2="399.93"/><line class="m" x1="347.52" y1="350.67" x2="365.02" y2="394.93"/><line class="m" x1="372.02" y1="456.93" x2="365.02" y2="394.93"/><line class="l" x1="372.02" y1="456.93" x2="362.02" y2="479.93"/><line class="l" x1="345.02" y1="459.93" x2="362.02" y2="479.93"/><path class="ad" d="M336.76,415.46c-.15-.23,22-2,22-2v3l-21,3"/><line class="m" x1="345.02" y1="459.93" x2="334.02" y2="399.93"/><line class="m" x1="337.05" y1="351.69" x2="347.02" y2="349.93"/><line class="m" x1="325.26" y1="340.96" x2="337.52" y2="351.67"/><path class="aa" d="M258.76,311.46l8-1,6-3,4-5,2-4,2.75,7.1,5.25,7.9s6.68,5.63,7.84,5.82,8.65,3.42,8.65,3.42l12.51,.77,21.57,2.57-3.31,4.93-7.76,9.17-11.94,3.07-13.4,1.18-10.78-2.06-15.2-5.63-8.04-7-5.88-8.28-3.2-10.07,.94,.11Z"/><path d="M257.09,311.56c5.49,1.03,11.15,.4,15.69-3.05,1.96-1.49,3.73-3.35,4.83-5.57,1.26-2.52,1.44-5.35,1.57-8.12,.07-1.45-2.18-1.44-2.25,0-.11,2.35-.19,4.84-1.26,6.99-.98,1.96-2.54,3.65-4.29,4.95-3.97,2.97-8.92,3.52-13.7,2.63-1.42-.26-2.02,1.9-.6,2.17h0Z"/><path d="M337.47,325.16c-2.39,2.76-4.83,5.5-7.18,8.3-1.66,1.98-3.24,4.13-5.31,5.71-2.54,1.93-5.62,2.22-8.68,2.72-3.69,.61-7.4,1.12-11.14,1.26-7.01,.27-13.94-1-20.5-3.46-5.79-2.17-11.53-5.17-16.02-9.49-5.51-5.3-7.73-12.4-9.74-19.56-.39-1.39-2.56-.8-2.17,.6,1.85,6.57,3.85,13.22,8.38,18.5,4.28,4.99,10.15,8.43,16.13,10.99,6.63,2.83,13.75,4.59,20.98,4.71,3.86,.07,7.7-.33,11.52-.89,1.78-.26,3.56-.56,5.33-.86s3.39-.58,4.98-1.33c2.85-1.35,4.93-3.81,6.89-6.19,2.64-3.19,5.39-6.29,8.1-9.41,.94-1.09-.64-2.69-1.59-1.59h0Z"/><path d="M276.98,295.12c1.31,4.94,2.66,9.98,5.3,14.4,2.34,3.91,5.69,7.12,9.57,9.5s8.17,3.92,12.6,4.71c5.52,.99,11.12,.69,16.7,.9,6.33,.24,12.6,1.13,18.51,3.49,1.34,.54,1.93-1.64,.6-2.17-4.92-1.97-10.14-2.93-15.4-3.35s-10.98-.09-16.45-.59c-8.74-.8-17.82-4.56-23.05-11.9-3.29-4.62-4.77-10.17-6.2-15.58-.37-1.4-2.54-.81-2.17,.6h0Z"/><path class="aa" d="M386.96,288.37s2.62,4.77,4.21,5.68,5.43,3.34,5.43,3.34l5.16,.42,6-1.85,3.52-2.86,.96,4.71-.46,10.38-7.15,12.06-14.42,10.49-16.47,6.22h-18.75l-8.75-5.77-7.2-4.81,6.53-3.19,11.24-1.79,11.46-2.8,5.46-2.65,5-6,4.74-9.64,3.05-8.02,.41-3.93Z"/><polygon class="a`" points="338.19 350.96 348.04 349.4 354.22 336.61 338.19 326.96 326.26 340.95 338.19 350.96"/><path d="M410.59,292.9c.7,2.8,1.33,5.64,1.21,8.54s-1.1,5.59-2.26,8.17c-1.04,2.32-2.13,4.6-3.79,6.56-1.53,1.8-3.32,3.36-5.15,4.85-4.13,3.37-8.25,6.6-13.03,9.01s-10.16,4.11-15.56,4.98c-6.26,1-12.69,.87-18.92-.26-1.42-.26-2.02,1.91-.6,2.17,11.66,2.13,23.84,.83,34.62-4.17,5.17-2.4,9.58-5.7,13.99-9.25,2.05-1.65,4.11-3.32,5.86-5.29s3.03-4.23,4.15-6.65c1.33-2.86,2.5-5.8,2.85-8.96,.39-3.47-.37-6.95-1.2-10.3-.35-1.4-2.52-.81-2.17,.6h0Z"/><path d="M385.84,285.69c.67,5.66,4.96,10.45,10.48,11.88,5.9,1.52,12.27-.91,16.26-5.36,.97-1.07-.62-2.67-1.59-1.59-3.38,3.76-8.67,6.02-13.74,4.86-4.61-1.06-8.61-5-9.17-9.79-.17-1.42-2.42-1.44-2.25,0h0Z"/><path d="M385.15,286.15c.98,5.08-.94,10.14-2.88,14.76-1.78,4.23-3.86,8.52-7.34,11.62-3.66,3.25-8.42,4.8-13.11,5.86-5.17,1.17-10.42,1.97-15.56,3.27-2.56,.65-5.35,1.28-7.67,2.61-2.18,1.25-3.58,3.34-4.91,5.41-.78,1.22,1.16,2.35,1.94,1.14,1.29-2.02,2.61-3.93,4.84-4.99,2.42-1.14,5.21-1.74,7.8-2.35,5.36-1.26,10.83-2.03,16.16-3.4,4.51-1.16,8.96-3.04,12.41-6.24s5.54-7.45,7.34-11.68c2.23-5.26,4.28-10.82,3.16-16.6-.27-1.42-2.44-.82-2.17,.6h0Z"/><line class="h" x1="338.26" y1="325.96" x2="354.26" y2="336.96"/><line class="m" x1="354.02" y1="335.93" x2="347.3" y2="350.01"/><line class="k" x1="338.26" y1="325.96" x2="354.26" y2="335.96"/></svg>